<?xml version="1.0" encoding="utf-8"?>
<!-- Generator: Adobe Illustrator 26.4.1, SVG Export Plug-In . SVG Version: 6.00 Build 0)  -->
<svg version="1.1" id="Layer_1" xmlns="http://www.w3.org/2000/svg" xmlns:xlink="http://www.w3.org/1999/xlink" x="0px" y="0px"
	 viewBox="0 0 1363.9 450" style="enable-background:new 0 0 1363.9 450;" xml:space="preserve">
<style type="text/css">
	.st0{fill:#595A5C;}
	.st1{font-family:'Kanit-SemiBold';}
	.st2{font-size:210.7689px;}
	.st3{letter-spacing:16;}
	.st4{fill:#44B58D;}
</style>
<g>
	<text transform="matrix(1 0 0 1 359.6091 276.3618)" class="st0 st1 st2 st3">MAVOLO</text>
	<g>
		<path class="st4" d="M265.6,297.2l-0.4-0.3l0.4,0.5l0.2,0.3c-30.4,4.1-61.4,6.3-92.9,6.3c-31.6,0-62.6-2.1-92.9-6.3l0.1-0.1
			l0.6-0.8l-0.8,0.6l-0.1,0c-1.2-9.1-2.3-18.2-3.2-27.3c1.1-0.1,2.2-0.1,3.2-0.2c6.1-0.5,12.1-1.2,18-2.3c1.2-0.2,2.4-0.4,3.7-0.7
			c55.2-10.7,95.2-43.6,115.5-95.2c5.1-12.9,9.7-27.1,13.7-42.3c1.3-5,2.6-10,3.8-15.2c0.2-0.8,0.4-1.6,0.6-2.5
			c0.3-1.3,0.6-2.5,0.8-3.8c10.1,0.9,20.1,2.1,30,3.4l-0.3,0.4l-0.2,0.3l0.3-0.2l0.4-0.3c4.1,30.4,6.3,61.4,6.3,92.9
			c0,31.6-2.1,62.6-6.3,92.9L265.6,297.2z"/>
		<path class="st4" d="M213.8,106.3c-0.2,1-0.4,2-0.7,3c-0.2,0.8-0.4,1.6-0.6,2.5c-1.4,6.1-2.9,12-4.5,17.7
			c-3.4,12.3-7.3,23.8-11.4,34.3c-17.4,44.2-51.6,72.4-98.9,81.7c-0.2,0-0.3,0.1-0.5,0.1c-5.7,1.1-11.5,1.9-17.5,2.5
			c-1.6,0.2-3.3,0.3-5,0.4c-0.9-14.5-1.4-29.1-1.4-43.9c0-31.6,2.1-62.6,6.3-92.9l0.2,0.2l0.6,0.4l-0.3-0.4l-0.3-0.4
			c30.4-4.1,61.4-6.3,92.9-6.3C186.6,105.1,200.3,105.5,213.8,106.3z"/>
	</g>
</g>
<g>
	<g>
		<path class="st0" d="M378.3,653.5V517.8h33.5l36.9,75.2l36.7-75.2h33.3v135.7h-33.9v-78L458,630.3h-18.8l-27-54.8v78H378.3z"/>
		<path class="st0" d="M552.9,653.5l51.8-135.7h36.7l51.8,135.7h-35.4l-12.2-30.8h-45.3l-12,30.8H552.9z M604.9,597.6h36l-18.1-47.2
			L604.9,597.6z"/>
		<path class="st0" d="M750.8,653.5l-51.8-135.7h35.4l34.6,97l34.8-97h35.6l-51.8,135.7H750.8z"/>
		<path class="st0" d="M928.4,655.6c-22.1,0-38.9-5.6-50.4-16.9c-11.5-11.2-17.3-28.7-17.3-52.5c0-25.2,5.8-43.2,17.3-54.2
			c11.5-11,28.3-16.4,50.4-16.4c22.1,0,38.9,5.5,50.4,16.4c11.5,11,17.3,29,17.3,54.2c0,23.7-5.8,41.2-17.3,52.5
			C967.3,650,950.5,655.6,928.4,655.6z M928.4,626.7c11.4,0,19.7-3.3,25-9.8c5.3-6.5,7.9-16.8,7.9-30.7c0-15.2-2.6-25.9-7.9-32.1
			c-5.3-6.3-13.6-9.4-25-9.4c-11.5,0-19.9,3.1-25.2,9.4c-5.3,6.3-7.9,17-7.9,32.1c0,13.9,2.6,24.1,7.9,30.7
			C908.5,623.5,916.9,626.7,928.4,626.7z"/>
		<path class="st0" d="M1030.2,653.5V517.8h33.9v109.6h64.1v26.1H1030.2z"/>
		<path class="st0" d="M1219.5,655.6c-22.1,0-38.9-5.6-50.4-16.9c-11.5-11.2-17.3-28.7-17.3-52.5c0-25.2,5.8-43.2,17.3-54.2
			c11.5-11,28.3-16.4,50.4-16.4c22.1,0,38.9,5.5,50.4,16.4c11.5,11,17.3,29,17.3,54.2c0,23.7-5.8,41.2-17.3,52.5
			C1258.4,650,1241.6,655.6,1219.5,655.6z M1219.5,626.7c11.4,0,19.7-3.3,25-9.8c5.3-6.5,7.9-16.8,7.9-30.7
			c0-15.2-2.6-25.9-7.9-32.1c-5.3-6.3-13.6-9.4-25-9.4c-11.5,0-19.9,3.1-25.2,9.4c-5.3,6.3-7.9,17-7.9,32.1
			c0,13.9,2.6,24.1,7.9,30.7C1199.6,623.5,1208,626.7,1219.5,626.7z"/>
	</g>
	<g>
		<path class="st4" d="M273.6,674.3l-0.4-0.3l0.4,0.5l0.2,0.3c-30.4,4.1-61.4,6.3-92.9,6.3c-31.6,0-62.6-2.1-92.9-6.3l0.1-0.1
			l0.6-0.8l-0.8,0.6l-0.1,0c-1.2-9.1-2.3-18.2-3.2-27.3c1.1-0.1,2.2-0.1,3.2-0.2c6.1-0.5,12.1-1.2,18-2.3c1.2-0.2,2.4-0.4,3.7-0.7
			c55.2-10.7,95.2-43.6,115.5-95.2c5.1-12.9,9.7-27.1,13.7-42.3c1.3-5,2.6-10,3.8-15.2c0.2-0.8,0.4-1.6,0.6-2.5
			c0.3-1.3,0.6-2.5,0.8-3.8c10.1,0.9,20.1,2.1,30,3.4l-0.3,0.4l-0.2,0.3l0.3-0.2l0.4-0.3c4.1,30.4,6.3,61.4,6.3,92.9
			c0,31.6-2.1,62.6-6.3,92.9L273.6,674.3z"/>
		<path class="st4" d="M221.8,483.5c-0.2,1-0.4,2-0.7,3c-0.2,0.8-0.4,1.6-0.6,2.5c-1.4,6.1-2.9,12-4.5,17.7
			c-3.4,12.3-7.3,23.8-11.4,34.3c-17.4,44.2-51.6,72.4-98.9,81.7c-0.2,0-0.3,0.1-0.5,0.1c-5.7,1.1-11.5,1.9-17.5,2.5
			c-1.6,0.2-3.3,0.3-5,0.4c-0.9-14.5-1.4-29.1-1.4-43.9c0-31.6,2.1-62.6,6.3-92.9l0.2,0.2l0.6,0.4l-0.3-0.4l-0.3-0.4
			c30.4-4.1,61.4-6.3,92.9-6.3C194.6,482.2,208.3,482.6,221.8,483.5z"/>
	</g>
</g>
</svg>
