<?xml version="1.0" encoding="utf-8"?>
<!-- Generator: Adobe Illustrator 26.4.1, SVG Export Plug-In . SVG Version: 6.00 Build 0)  -->
<svg version="1.1" id="Layer_1" xmlns="http://www.w3.org/2000/svg" xmlns:xlink="http://www.w3.org/1999/xlink" x="0px" y="0px"
	 viewBox="0 0 329.3 337.6" style="enable-background:new 0 0 329.3 337.6;" xml:space="preserve">
<style type="text/css">
	.st0{fill:#fff;}
</style>
<g>
	<g>
		<path class="st0" d="M249.1,255.7l-0.4-0.3l0.4,0.5l0.2,0.3c-30.4,4.1-61.3,6.3-92.9,6.3c-31.5,0-62.5-2.1-92.9-6.3l0.1-0.1
			l0.6-0.8l-0.8,0.6l-0.1,0c-1.2-9.1-2.3-18.2-3.2-27.3c1.1-0.1,2.2-0.1,3.2-0.2c6.1-0.5,12.1-1.2,18-2.3c1.2-0.2,2.4-0.4,3.6-0.7
			c55.2-10.7,95.1-43.6,115.4-95.2c5.1-12.9,9.7-27,13.7-42.3c1.3-5,2.6-10,3.8-15.2c0.2-0.8,0.4-1.6,0.6-2.5
			c0.3-1.3,0.6-2.5,0.8-3.8c10.1,0.9,20.1,2.1,30,3.4l-0.3,0.4l-0.2,0.3l0.3-0.2l0.4-0.3c4.1,30.4,6.3,61.3,6.3,92.9
			c0,31.5-2.1,62.5-6.3,92.9L249.1,255.7z"/>
		<path class="st0" d="M197.3,64.9c-0.2,1-0.4,2-0.7,3c-0.2,0.8-0.4,1.6-0.6,2.4c-1.4,6.1-2.9,11.9-4.5,17.7
			c-3.4,12.3-7.3,23.8-11.4,34.3c-17.4,44.2-51.6,72.4-98.8,81.7c-0.2,0-0.3,0.1-0.5,0.1c-5.7,1.1-11.5,1.9-17.5,2.5
			c-1.6,0.2-3.3,0.3-4.9,0.4c-0.9-14.5-1.4-29.1-1.4-43.8c0-31.5,2.1-62.5,6.3-92.9l0.2,0.2l0.6,0.4l-0.3-0.4L63.5,70
			c30.4-4.1,61.4-6.3,92.9-6.3C170.1,63.7,183.8,64.1,197.3,64.9z"/>
	</g>
</g>
</svg>
