<?xml version="1.0" encoding="utf-8"?>
<!-- Generator: Adobe Illustrator 26.4.1, SVG Export Plug-In . SVG Version: 6.00 Build 0)  -->
<svg version="1.1" id="Layer_1" xmlns="http://www.w3.org/2000/svg" xmlns:xlink="http://www.w3.org/1999/xlink" x="0px" y="0px"
	 viewBox="0 0 746.6 582.7" style="enable-background:new 0 0 746.6 582.7;" xml:space="preserve">
<style type="text/css">
	.st0{fill:#595A5C;}
	.st1{font-family:'Kanit-SemiBold';}
	.st2{font-size:162.2998px;}
	.st3{letter-spacing:12;}
	.st4{fill:#44B58D;}
</style>
<g>
	<text transform="matrix(1 0 0 1 21.1114 492.1927)" class="st0 st1 st2 st3">MAVOLO</text>
	<g>
		<path class="st4" d="M477,287.1l-0.4-0.3l0.4,0.5l0.2,0.3c-30.4,4.2-61.4,6.3-93,6.3c-31.6,0-62.6-2.1-93-6.3l0.1-0.1l0.6-0.8
			l-0.8,0.6l-0.1,0c-1.2-9.1-2.3-18.2-3.2-27.3c1.1-0.1,2.2-0.1,3.2-0.2c6.1-0.5,12.1-1.2,18-2.3c1.2-0.2,2.4-0.4,3.7-0.7
			c55.2-10.7,95.2-43.6,115.6-95.3c5.1-12.9,9.7-27.1,13.7-42.4c1.3-5,2.6-10,3.8-15.2c0.2-0.8,0.4-1.6,0.6-2.5
			c0.3-1.3,0.6-2.5,0.8-3.8c10.1,0.9,20.1,2.1,30,3.4l-0.3,0.4l-0.2,0.3l0.3-0.2l0.4-0.3c4.2,30.4,6.3,61.4,6.3,93
			c0,31.6-2.1,62.6-6.3,93L477,287.1z"/>
		<path class="st4" d="M425.2,96.1c-0.2,1-0.4,2-0.7,3c-0.2,0.8-0.4,1.6-0.6,2.5c-1.4,6.1-3,12-4.5,17.7
			c-3.4,12.3-7.3,23.8-11.4,34.4c-17.4,44.2-51.6,72.5-98.9,81.8c-0.2,0-0.3,0.1-0.5,0.1c-5.7,1.1-11.5,1.9-17.5,2.5
			c-1.6,0.2-3.3,0.3-5,0.4c-0.9-14.5-1.4-29.1-1.4-43.9c0-31.6,2.1-62.6,6.3-93l0.2,0.2l0.6,0.4l-0.3-0.4l-0.3-0.4
			c30.4-4.2,61.4-6.3,93-6.3C397.9,94.9,411.6,95.3,425.2,96.1z"/>
	</g>
</g>
<g>
	<g>
		<path class="st0" d="M786.9,478.1V373.6h25.8l28.4,57.9l28.2-57.9H895v104.5h-26.1V418l-20.6,42.2h-14.4L813.1,418v60.1H786.9z"/>
		<path class="st0" d="M921.3,478.1l39.9-104.5h28.2l39.9,104.5h-27.3l-9.4-23.7h-34.9l-9.3,23.7H921.3z M961.4,435.1h27.8l-14-36.4
			L961.4,435.1z"/>
		<path class="st0" d="M1073.7,478.1l-39.9-104.5h27.3l26.6,74.7l26.8-74.7h27.4L1102,478.1H1073.7z"/>
		<path class="st0" d="M1210.5,479.7c-17,0-29.9-4.3-38.8-13c-8.9-8.7-13.3-22.1-13.3-40.4c0-19.4,4.4-33.3,13.3-41.7
			c8.9-8.4,21.8-12.7,38.8-12.7c17,0,29.9,4.2,38.8,12.7c8.9,8.4,13.3,22.3,13.3,41.7c0,18.3-4.4,31.8-13.3,40.4
			C1240.5,475.4,1227.5,479.7,1210.5,479.7z M1210.5,457.5c8.8,0,15.2-2.5,19.2-7.5s6.1-12.9,6.1-23.6c0-11.7-2-19.9-6.1-24.8
			c-4.1-4.8-10.5-7.2-19.2-7.2c-8.9,0-15.3,2.4-19.4,7.2c-4.1,4.8-6.1,13.1-6.1,24.8c0,10.7,2,18.6,6.1,23.6
			S1201.7,457.5,1210.5,457.5z"/>
		<path class="st0" d="M1288.9,478.1V373.6h26.1V458h49.3v20.1H1288.9z"/>
		<path class="st0" d="M1434.7,479.7c-17,0-29.9-4.3-38.8-13c-8.9-8.7-13.3-22.1-13.3-40.4c0-19.4,4.4-33.3,13.3-41.7
			c8.9-8.4,21.8-12.7,38.8-12.7c17,0,29.9,4.2,38.8,12.7c8.9,8.4,13.3,22.3,13.3,41.7c0,18.3-4.4,31.8-13.3,40.4
			C1464.6,475.4,1451.7,479.7,1434.7,479.7z M1434.7,457.5c8.8,0,15.2-2.5,19.2-7.5s6.1-12.9,6.1-23.6c0-11.7-2-19.9-6.1-24.8
			c-4.1-4.8-10.5-7.2-19.2-7.2c-8.9,0-15.3,2.4-19.4,7.2c-4.1,4.8-6.1,13.1-6.1,24.8c0,10.7,2,18.6,6.1,23.6
			S1425.8,457.5,1434.7,457.5z"/>
	</g>
	<g>
		<path class="st4" d="M1234.5,273l-0.4-0.3l0.4,0.5l0.2,0.3c-30.4,4.2-61.4,6.3-93,6.3c-31.6,0-62.6-2.1-93-6.3l0.1-0.1l0.6-0.8
			l-0.8,0.6l-0.1,0c-1.2-9.1-2.3-18.2-3.2-27.3c1.1-0.1,2.2-0.1,3.2-0.2c6.1-0.5,12.1-1.2,18-2.3c1.2-0.2,2.4-0.4,3.7-0.7
			c55.2-10.7,95.2-43.6,115.6-95.3c5.1-12.9,9.7-27.1,13.7-42.4c1.3-5,2.6-10,3.8-15.2c0.2-0.8,0.4-1.6,0.6-2.5
			c0.3-1.3,0.6-2.5,0.8-3.8c10.1,0.9,20.1,2.1,30,3.4l-0.3,0.4l-0.2,0.3l0.3-0.2l0.4-0.3c4.2,30.4,6.3,61.4,6.3,93
			c0,31.6-2.1,62.6-6.3,93L1234.5,273z"/>
		<path class="st4" d="M1182.7,82c-0.2,1-0.4,2-0.7,3c-0.2,0.8-0.4,1.6-0.6,2.5c-1.4,6.1-3,12-4.5,17.7
			c-3.4,12.3-7.3,23.8-11.4,34.4c-17.4,44.2-51.6,72.5-98.9,81.8c-0.2,0-0.3,0.1-0.5,0.1c-5.7,1.1-11.5,1.9-17.5,2.5
			c-1.6,0.2-3.3,0.3-5,0.4c-0.9-14.5-1.4-29.1-1.4-43.9c0-31.6,2.1-62.6,6.3-93l0.2,0.2l0.6,0.4l-0.3-0.4l-0.3-0.4
			c30.4-4.2,61.4-6.3,93-6.3C1155.5,80.8,1169.2,81.2,1182.7,82z"/>
	</g>
</g>
</svg>
